<?xml version="1.0" encoding="UTF-8"?>
<svg xmlns="http://www.w3.org/2000/svg" viewBox="0 0 540 240" role="img" aria-label="RBD Trust of India">
  <title>RBD — Trust of India</title>
  <g fill="#E11D2E">
    <!-- Letter R -->
    <path d="M22 30 H120 a60 60 0 0 1 60 60 v8 a60 60 0 0 1 -42 57 l46 35 H132 l-44 -33 H78 v33 H22 Z M78 70 v36 h36 a18 18 0 0 0 18 -18 a18 18 0 0 0 -18 -18 Z"/>
    <!-- Letter B -->
    <path d="M196 30 H300 a52 52 0 0 1 52 44 a44 44 0 0 1 -16 30 a48 48 0 0 1 22 38 a52 52 0 0 1 -52 48 H196 Z M252 70 v32 h44 a16 16 0 0 0 16 -16 a16 16 0 0 0 -16 -16 Z M252 134 v36 h48 a18 18 0 0 0 18 -18 a18 18 0 0 0 -18 -18 Z"/>
    <!-- Letter D -->
    <path d="M372 30 H468 a72 72 0 0 1 72 72 v6 a72 72 0 0 1 -72 72 H372 Z M428 70 v100 h36 a32 32 0 0 0 32 -32 v-36 a32 32 0 0 0 -32 -32 Z"/>
    <!-- Plus mark -->
    <rect x="498" y="6" width="14" height="44" rx="2"/>
    <rect x="483" y="21" width="44" height="14" rx="2"/>
  </g>
  <!-- Tagline rule + text -->
  <g>
    <rect x="22" y="200" width="496" height="2" fill="#1A1A1A"/>
    <text x="270" y="226" text-anchor="middle"
          font-family="Inter, Arial, sans-serif" font-weight="700"
          font-size="22" letter-spacing="6" fill="#1A1A1A">TRUST OF INDIA</text>
  </g>
</svg>
